<?xml version="1.0" encoding="UTF-8" standalone="no"?>
<!-- Created with Inkscape (http://www.inkscape.org/) -->

<svg
   width="286.80835mm"
   height="140.75833mm"
   viewBox="0 0 286.80835 140.75833"
   version="1.1"
   id="svg1"
   inkscape:version="1.3.2 (091e20ef0f, 2023-11-25)"
   sodipodi:docname="bloqs.svg"
   xmlns:inkscape="http://www.inkscape.org/namespaces/inkscape"
   xmlns:sodipodi="http://sodipodi.sourceforge.net/DTD/sodipodi-0.dtd"
   xmlns:xlink="http://www.w3.org/1999/xlink"
   xmlns="http://www.w3.org/2000/svg"
   xmlns:svg="http://www.w3.org/2000/svg">
  <sodipodi:namedview
     id="namedview1"
     pagecolor="#ffffff"
     bordercolor="#000000"
     borderopacity="0.25"
     inkscape:showpageshadow="2"
     inkscape:pageopacity="0.0"
     inkscape:pagecheckerboard="0"
     inkscape:deskcolor="#d1d1d1"
     inkscape:document-units="mm"
     showguides="true"
     inkscape:zoom="0.71624579"
     inkscape:cx="494.24374"
     inkscape:cy="194.06746"
     inkscape:window-width="1920"
     inkscape:window-height="1008"
     inkscape:window-x="0"
     inkscape:window-y="0"
     inkscape:window-maximized="1"
     inkscape:current-layer="layer1">
    <sodipodi:guide
       position="-7.689481e-06,223.975"
       orientation="0,-1"
       id="guide6"
       inkscape:locked="false" />
  </sodipodi:namedview>
  <defs
     id="defs1" />
  <g
     inkscape:label="Capa 1"
     inkscape:groupmode="layer"
     id="layer1"
     transform="translate(-195.96579,-158.35315)">
    <g
       id="g1"
       transform="translate(155.74912,44.846898)">
      <rect
         inkscape:tile-y0="884.48022"
         inkscape:tile-x0="43.813694"
         inkscape:tile-h="256"
         inkscape:tile-w="256"
         inkscape:tile-cy="1012.4802"
         inkscape:tile-cx="171.81369"
         style="display:inline;fill:#ffc100;fill-opacity:1;stroke:none;stroke-width:0.264583"
         id="rect3928"
         width="67.73333"
         height="67.73333"
         x="40.216667"
         y="113.50625"
         ry="0" />
      <text
         id="text3940"
         y="174.05467"
         x="58.299755"
         style="font-style:normal;font-variant:normal;font-weight:normal;font-stretch:normal;font-size:75.1599px;line-height:125%;font-family:Roboto;-inkscape-font-specification:Roboto;letter-spacing:0px;word-spacing:0px;display:inline;fill:#ffffff;fill-opacity:1;stroke:none;stroke-width:0.264583"
         xml:space="preserve"
         inkscape:export-xdpi="90"
         inkscape:export-ydpi="90"><tspan
           style="font-style:normal;font-variant:normal;font-weight:normal;font-stretch:normal;font-family:Roboto;-inkscape-font-specification:Roboto;fill:#ffffff;stroke-width:0.264583"
           y="174.05467"
           x="58.299755"
           id="tspan3942"
           sodipodi:role="line">?</tspan></text>
    </g>
    <g
       id="g7"
       transform="translate(0,-1.1537172)">
      <rect
         inkscape:tile-y0="56.371366"
         inkscape:tile-x0="43.813694"
         ry="0"
         y="232.53186"
         x="415.0408"
         height="67.73333"
         width="67.73333"
         id="use12076"
         style="display:inline;fill:#0084ff;fill-opacity:1;stroke:none;stroke-width:0.264583" />
      <g
         id="g10969"
         style="display:inline"
         transform="matrix(0.26458333,0,0,0.26458333,-1389.8254,882.74403)">
        <g
           transform="matrix(0.99612811,0.26691172,-0.26691172,0.99612811,-537.17918,-1863.3541)"
           id="g10139">
          <rect
             style="fill:#ff6600;fill-opacity:1;stroke:none"
             id="rect10125"
             width="38.837788"
             height="38.837788"
             x="6931.1274"
             y="-2430.5508"
             rx="0"
             ry="0" />
          <rect
             ry="0"
             rx="0"
             y="-2389.7129"
             x="6931.1274"
             height="129.09984"
             width="38.838169"
             id="rect10127"
             style="fill:#ffcc00;fill-opacity:1;stroke:none" />
          <path
             sodipodi:type="star"
             style="fill:#ffffff;fill-opacity:1;stroke:none"
             id="path10129"
             sodipodi:sides="3"
             sodipodi:cx="7445.7144"
             sodipodi:cy="-153.83598"
             sodipodi:r1="65.168541"
             sodipodi:r2="32.58427"
             sodipodi:arg1="0.52359878"
             sodipodi:arg2="1.5707963"
             inkscape:flatsided="true"
             inkscape:rounded="0"
             inkscape:randomized="0"
             d="m 7502.152,-121.25171 -112.8753,0 56.4377,-97.75281 z"
             transform="matrix(-0.34407717,0,0,-0.34407717,9512.4468,-2300.333)"
             inkscape:transform-center-y="5.6057624"
             inkscape:transform-center-x="-0.0006157737" />
          <path
             inkscape:transform-center-x="-0.00019622613"
             inkscape:transform-center-y="1.6493107"
             transform="matrix(-0.10123418,0,0,-0.10123418,7704.3073,-2247.1493)"
             d="m 7502.152,-121.25171 -112.8753,0 56.4377,-97.75281 z"
             inkscape:randomized="0"
             inkscape:rounded="0"
             inkscape:flatsided="true"
             sodipodi:arg2="1.5707963"
             sodipodi:arg1="0.52359878"
             sodipodi:r2="32.58427"
             sodipodi:r1="65.168541"
             sodipodi:cy="-153.83598"
             sodipodi:cx="7445.7144"
             sodipodi:sides="3"
             id="path10137"
             style="fill:#333333;fill-opacity:1;stroke:none"
             sodipodi:type="star" />
        </g>
        <path
           sodipodi:nodetypes="csc"
           inkscape:connector-curvature="0"
           id="path10157"
           d="m 6975.4528,-2227.4949 c -108.8401,0 -14.3951,-54.7475 -41.1001,-92.4693 -38.851,-54.8783 -86.8111,-8.8705 -86.8111,-93.1889"
           style="fill:none;stroke:#333333;stroke-width:6;stroke-linecap:round;stroke-linejoin:round;stroke-opacity:1" />
      </g>
    </g>
    <g
       id="g2"
       transform="translate(154.26746,44.846898)">
      <use
         id="use4127"
         transform="translate(74.506654)"
         xlink:href="#rect3928"
         inkscape:tiled-clone-of="#rect3928"
         y="0"
         x="0"
         width="2104.7244"
         height="1488.189"
         style="display:inline" />
      <path
         inkscape:connector-curvature="0"
         id="path4204"
         d="m 142.20695,119.5917 c -4.96088,0 -9.44851,2.01535 -12.7,5.26684 l 4.41524,4.41524 c 2.12034,-2.12032 5.04999,-3.4313 8.28476,-3.4313 6.46959,0 11.71609,5.2465 11.71609,11.71606 h -3.43132 l 6.55672,8.89662 6.55669,-8.89662 h -3.4313 c 0,-9.92176 -8.04508,-17.96684 -17.96688,-17.96684 z m -14.43633,7.27604 c -0.17663,0.23812 -0.34769,0.48064 -0.51263,0.7276 0.16283,-0.24416 0.33758,-0.49112 0.51263,-0.7276 z m -0.40513,1.79419 -6.55672,8.89661 h 3.43133 c 0,9.9218 8.04506,17.96685 17.96685,17.96685 4.95874,0 9.44057,-2.01784 12.69175,-5.26685 l -4.40698,-4.41523 c -2.12032,2.12032 -5.04997,3.4313 -8.28477,3.4313 -6.46956,0 -11.71607,-5.24647 -11.71607,-11.71607 h 3.43131 z"
         style="display:inline;fill:#ffffff;fill-opacity:1;stroke:none;stroke-width:0.264583" />
      <text
         id="text4212"
         y="174.79243"
         x="159.22755"
         style="font-style:normal;font-variant:normal;font-weight:normal;font-stretch:normal;font-size:32.2114px;line-height:125%;font-family:Roboto;-inkscape-font-specification:Roboto;letter-spacing:0px;word-spacing:0px;display:inline;fill:#ffffff;fill-opacity:1;stroke:none;stroke-width:0.264583"
         xml:space="preserve"
         inkscape:export-xdpi="90"
         inkscape:export-ydpi="90"><tspan
           style="font-style:normal;font-variant:normal;font-weight:normal;font-stretch:normal;font-family:Roboto;-inkscape-font-specification:Roboto;fill:#ffffff;stroke-width:0.264583"
           y="174.79243"
           x="159.22755"
           id="tspan4214"
           sodipodi:role="line">?</tspan></text>
    </g>
    <g
       id="g4330"
       transform="matrix(0.26458333,0,0,0.26458333,28.624316,-5.1999577)"
       style="display:inline" />
    <g
       id="g3"
       transform="translate(152.78581,44.846898)">
      <use
         id="use4129"
         transform="translate(149.01332)"
         xlink:href="#rect3928"
         inkscape:tiled-clone-of="#rect3928"
         y="0"
         x="0"
         width="2104.7244"
         height="1488.189"
         style="display:inline" />
      <g
         transform="matrix(0.26458333,0,0,0.26458333,30.181503,-5.1999577)"
         id="g4322"
         style="display:inline">
        <path
           inkscape:connector-curvature="0"
           id="path4314"
           d="m 705.00298,471.65341 c -18.74984,0 -35.7109,7.61715 -48,19.90625 l 16.6875,16.6875 c 8.01382,-8.01382 19.08652,-12.96875 31.3125,-12.96875 24.45195,0 44.28125,19.8293 44.28125,44.28125 h -12.96875 l 24.78125,33.625 24.78125,-33.625 h -12.96875 c 0,-37.49969 -30.40656,-67.90625 -67.90625,-67.90625 z m -54.5625,27.5 c -0.66759,0.90001 -1.31415,1.8166 -1.9375,2.75 0.61533,-0.92278 1.27589,-1.85617 1.9375,-2.75 z m -1.53125,6.78125 -24.78125,33.625 h 12.96875 c 0,37.4997 30.40656,67.9062 67.90625,67.9062 18.74171,0 35.68091,-7.6265 47.96875,-19.9062 l -16.65625,-16.6875 c -8.01382,8.0138 -19.08652,12.9687 -31.3125,12.9687 -24.45195,0 -44.28125,-19.8292 -44.28125,-44.2812 h 12.96875 z"
           style="display:inline;fill:#ffffff;fill-opacity:1;stroke:none" />
        <text
           inkscape:export-ydpi="90"
           inkscape:export-xdpi="90"
           xml:space="preserve"
           style="font-style:normal;font-weight:normal;font-size:121.744px;line-height:125%;font-family:Sans;letter-spacing:0px;word-spacing:0px;fill:#ffffff;fill-opacity:1;stroke:none"
           x="767.90607"
           y="680.1673"
           id="text4316"><tspan
             sodipodi:role="line"
             id="tspan4318"
             x="767.90607"
             y="680.1673"
             style="font-style:normal;font-variant:normal;font-weight:normal;font-stretch:normal;font-family:Roboto;-inkscape-font-specification:Roboto;fill:#ffffff">#</tspan></text>
      </g>
    </g>
    <g
       id="g4"
       transform="translate(1.2733333e-5)">
      <rect
         inkscape:tile-y0="56.371366"
         inkscape:tile-x0="43.813694"
         ry="0"
         y="231.37814"
         x="195.96577"
         height="67.73333"
         width="67.73333"
         id="use23485"
         style="display:inline;fill:#0084ff;fill-opacity:1;stroke:none;stroke-width:0.264583" />
      <g
         style="display:inline;fill:#ffffff"
         transform="matrix(0,-0.29608134,0.29608134,0,486.30071,353.8068)"
         id="g23501"
         inkscape:export-filename="C:\Users\user\Documents\GitHub\v0.82\source\Bin\Minibloq\blocks\g5718.png"
         inkscape:export-xdpi="90"
         inkscape:export-ydpi="90">
        <path
           inkscape:export-ydpi="90"
           inkscape:export-xdpi="90"
           inkscape:export-filename="C:\Users\Camilo Parra Palacio\Desktop\miniBloq.v0.8x\rect3625.png"
           inkscape:connector-curvature="0"
           id="path23503"
           d="m 299.11369,-954.37125 c -24.34291,0 -46.36346,9.8893 -62.31839,25.8442 l 21.66538,21.6654 c 10.40434,-10.4044 24.78002,-16.8373 40.65301,-16.8373 31.74596,0 57.49034,25.7443 57.49034,57.49029 H 339.7667 l 32.1735,43.65533 32.17349,-43.65533 h -16.83733 c 0,-48.68589 -39.47683,-88.16259 -88.16267,-88.16259 z m -70.83849,35.7032 c -0.86673,1.1684 -1.70616,2.3585 -2.51545,3.5703 0.79888,-1.1981 1.65649,-2.4099 2.51545,-3.5703 z m -1.98802,8.8041 -32.17349,43.65529 h 16.83733 c 0,48.68586 39.47683,88.16261 88.16267,88.16261 24.33236,0 46.32452,-9.90148 62.27782,-25.84422 l -21.62481,-21.66538 c -10.40434,10.40432 -24.78002,16.83727 -40.65301,16.83727 -31.74596,0 -57.49034,-25.74425 -57.49034,-57.49028 h 16.83733 z"
           style="display:inline;fill:#ffffff;fill-opacity:1;stroke:none" />
      </g>
      <g
         id="g24354"
         transform="matrix(0.19733405,0,0,0.19733405,-980.67761,1259.4525)"
         inkscape:export-filename="C:\Users\user\Documents\GitHub\v0.82\source\Bin\Minibloq\blocks\g5718.png"
         inkscape:export-xdpi="90"
         inkscape:export-ydpi="90"
         style="display:inline">
        <g
           id="g24436">
          <rect
             style="fill:#333333;fill-opacity:1;stroke:none"
             id="rect23509"
             width="117.31965"
             height="5.2378001"
             x="-5096.8564"
             y="-6172.7896"
             transform="rotate(90)" />
          <rect
             style="fill:#333333;fill-opacity:1;stroke:none"
             id="rect23511"
             width="25.139643"
             height="52.377998"
             x="-4979.5366"
             y="-6196.3599"
             rx="1.7141631"
             ry="2"
             transform="rotate(90)" />
          <rect
             style="fill:#333333;fill-opacity:1;stroke:none"
             id="rect23513"
             width="25.139223"
             height="52.377998"
             x="-5121.9956"
             y="-6196.3599"
             rx="1.7141346"
             ry="2"
             transform="rotate(90)" />
          <rect
             style="fill:#333333;fill-opacity:1;stroke:none"
             id="rect23517"
             width="117.31901"
             height="5.237772"
             x="-5096.856"
             y="-6090.6787"
             transform="rotate(90)" />
          <rect
             style="fill:#333333;fill-opacity:1;stroke:none"
             id="rect23519"
             width="25.139505"
             height="52.377716"
             x="-4979.5371"
             y="-6114.2485"
             rx="1.7141631"
             ry="2"
             transform="rotate(90)" />
          <rect
             style="fill:#333333;fill-opacity:1;stroke:none"
             id="rect23521"
             width="25.139088"
             height="52.377716"
             x="-5121.9951"
             y="-6114.2485"
             rx="1.7141346"
             ry="2"
             transform="rotate(90)" />
          <rect
             transform="rotate(90)"
             style="fill:#ffcc00;fill-opacity:1;stroke:#333333;stroke-width:1.67599"
             id="rect23523"
             width="110.99051"
             height="122.96297"
             x="-5093.6919"
             y="-6186.3076"
             rx="7.8606186"
             ry="7.8606181" />
          <rect
             transform="rotate(90)"
             style="fill:none;stroke:#333333;stroke-width:1.67599"
             id="rect23525"
             width="87.499329"
             height="96.937813"
             x="-5081.9463"
             y="-6173.2949"
             rx="7.9999995"
             ry="7.9999995" />
          <g
             id="g23527"
             transform="translate(5601.8887,-4707.0591)">
            <circle
               transform="matrix(0,2.0951087,-2.0951087,0,1091.219,1826.4504)"
               id="path23529"
               style="fill:#ff6600;fill-opacity:1;stroke:#333333;stroke-width:0.799956"
               cx="-1029.8214"
               cy="250.04076"
               r="9.4642859" />
            <rect
               ry="0"
               rx="0"
               y="-595.26135"
               x="-366.66022"
               height="28.458509"
               width="71.04583"
               id="rect23531"
               style="fill:#ff6600;fill-opacity:1;stroke:#333333;stroke-width:1.67599"
               transform="rotate(90)" />
            <g
               style="fill:#808080;stroke:none"
               transform="matrix(0,2.0951087,-2.0951087,0,1157.0174,1572.8221)"
               id="g23533">
              <rect
                 style="fill:#808080;fill-opacity:1;stroke:none"
                 id="rect23535"
                 width="9.1846895"
                 height="4.0418639"
                 x="-922.12042"
                 y="263.53677" />
              <rect
                 style="fill:#808080;fill-opacity:1;stroke:none"
                 id="rect23537"
                 width="9.1846895"
                 height="4.0418639"
                 x="-904.59235"
                 y="263.53677" />
            </g>
          </g>
        </g>
      </g>
    </g>
    <g
       id="g5">
      <rect
         inkscape:tile-y0="56.371366"
         inkscape:tile-x0="43.813694"
         ry="0"
         y="231.37814"
         x="268.99078"
         height="67.73333"
         width="67.73333"
         id="use23487"
         style="display:inline;fill:#0084ff;fill-opacity:1;stroke:none;stroke-width:0.264583" />
      <g
         inkscape:export-ydpi="90"
         inkscape:export-xdpi="90"
         inkscape:export-filename="C:\Users\user\Desktop\bitmap.png"
         transform="matrix(0.29608131,0,0,0.29608131,82.548292,781.04207)"
         id="g11722"
         style="display:inline;fill:#ffffff">
        <g
           inkscape:export-ydpi="90"
           inkscape:export-xdpi="90"
           inkscape:export-filename="C:\Users\Camilo Parra Palacio\Desktop\miniBloq.v0.8x\use4459.png"
           id="g11724"
           style="fill:#ffffff"
           transform="matrix(2.0176537,0,0,2.0176537,-928.82429,-1691.9739)">
          <rect
             y="-36.310486"
             x="801.1853"
             height="23.454191"
             width="47.356716"
             id="rect11726"
             style="fill:#ffffff;fill-opacity:1;stroke:none" />
          <path
             inkscape:connector-curvature="0"
             id="path11728"
             d="M 847.55086,-49.614977 V -0.05245732 L 881.17582,-24.833757 Z"
             style="fill:#ffffff;fill-opacity:1;stroke:none" />
        </g>
        <g
           inkscape:export-ydpi="90"
           inkscape:export-xdpi="90"
           inkscape:export-filename="C:\Users\Camilo Parra Palacio\Desktop\miniBloq.v0.8x\use4459.png"
           transform="matrix(-2.0176537,0,0,-2.0176537,2416.991,-1792.1856)"
           style="fill:#ffffff"
           id="g11730">
          <rect
             style="fill:#ffffff;fill-opacity:1;stroke:none"
             id="rect11732"
             width="47.356716"
             height="23.454191"
             x="801.1853"
             y="-36.310486" />
          <path
             style="fill:#ffffff;fill-opacity:1;stroke:none"
             d="M 847.55086,-49.614977 V -0.05245732 L 881.17582,-24.833757 Z"
             id="path11734"
             inkscape:connector-curvature="0" />
        </g>
      </g>
      <g
         transform="matrix(0.19733405,0,0,0.19733405,-907.65262,1259.4525)"
         id="g11808"
         inkscape:export-filename="C:\Users\user\Desktop\bitmap.png"
         inkscape:export-xdpi="90"
         inkscape:export-ydpi="90"
         style="display:inline">
        <g
           id="g11810">
          <rect
             transform="rotate(90)"
             y="-6172.7896"
             x="-5096.8564"
             height="5.2378001"
             width="117.31965"
             id="rect11812"
             style="fill:#333333;fill-opacity:1;stroke:none" />
          <rect
             transform="rotate(90)"
             ry="2"
             rx="1.7141631"
             y="-6196.3599"
             x="-4979.5366"
             height="52.377998"
             width="25.139643"
             id="rect11814"
             style="fill:#333333;fill-opacity:1;stroke:none" />
          <rect
             transform="rotate(90)"
             ry="2"
             rx="1.7141346"
             y="-6196.3599"
             x="-5121.9956"
             height="52.377998"
             width="25.139223"
             id="rect11816"
             style="fill:#333333;fill-opacity:1;stroke:none" />
          <rect
             transform="rotate(90)"
             y="-6090.6787"
             x="-5096.856"
             height="5.237772"
             width="117.31901"
             id="rect11818"
             style="fill:#333333;fill-opacity:1;stroke:none" />
          <rect
             transform="rotate(90)"
             ry="2"
             rx="1.7141631"
             y="-6114.2485"
             x="-4979.5371"
             height="52.377716"
             width="25.139505"
             id="rect11820"
             style="fill:#333333;fill-opacity:1;stroke:none" />
          <rect
             transform="rotate(90)"
             ry="2"
             rx="1.7141346"
             y="-6114.2485"
             x="-5121.9951"
             height="52.377716"
             width="25.139088"
             id="rect11822"
             style="fill:#333333;fill-opacity:1;stroke:none" />
          <rect
             ry="7.8606181"
             rx="7.8606186"
             y="-6186.3076"
             x="-5093.6919"
             height="122.96297"
             width="110.99051"
             id="rect11824"
             style="fill:#ffcc00;fill-opacity:1;stroke:#333333;stroke-width:1.67599"
             transform="rotate(90)" />
          <rect
             ry="7.9999995"
             rx="7.9999995"
             y="-6173.2949"
             x="-5081.9463"
             height="96.937813"
             width="87.499329"
             id="rect11826"
             style="fill:none;stroke:#333333;stroke-width:1.67599"
             transform="rotate(90)" />
          <g
             transform="translate(5601.8887,-4707.0591)"
             id="g11828">
            <circle
               style="fill:#ff6600;fill-opacity:1;stroke:#333333;stroke-width:0.799956"
               id="path11830"
               transform="matrix(0,2.0951087,-2.0951087,0,1091.219,1826.4504)"
               cx="-1029.8214"
               cy="250.04076"
               r="9.4642859" />
            <rect
               transform="rotate(90)"
               style="fill:#ff6600;fill-opacity:1;stroke:#333333;stroke-width:1.67599"
               id="rect11832"
               width="71.04583"
               height="28.458509"
               x="-366.66022"
               y="-595.26135"
               rx="0"
               ry="0" />
            <g
               id="g11834"
               transform="matrix(0,2.0951087,-2.0951087,0,1157.0174,1572.8221)"
               style="fill:#808080;stroke:none">
              <rect
                 y="263.53677"
                 x="-922.12042"
                 height="4.0418639"
                 width="9.1846895"
                 id="rect11836"
                 style="fill:#808080;fill-opacity:1;stroke:none" />
              <rect
                 y="263.53677"
                 x="-904.59235"
                 height="4.0418639"
                 width="9.1846895"
                 id="rect11838"
                 style="fill:#808080;fill-opacity:1;stroke:none" />
            </g>
          </g>
        </g>
      </g>
    </g>
    <g
       id="g6"
       transform="translate(24.251231,11.244797)">
      <rect
         inkscape:tile-y0="56.371366"
         inkscape:tile-x0="43.813694"
         ry="0"
         y="220.13335"
         x="317.76456"
         height="67.73333"
         width="67.73333"
         id="use10072"
         style="display:inline;fill:#0084ff;fill-opacity:1;stroke:none;stroke-width:0.264583" />
      <g
         transform="matrix(0.26458333,0,0,0.26458333,-1487.1016,870.34553)"
         id="g10074"
         style="display:inline">
        <g
           transform="matrix(0.99612811,0.26691172,-0.26691172,0.99612811,-537.17918,-1863.3541)"
           id="g10076">
          <rect
             style="fill:#ff6600;fill-opacity:1;stroke:none"
             id="rect10078"
             width="38.837788"
             height="38.837788"
             x="6931.1274"
             y="-2430.5508"
             rx="0"
             ry="0" />
          <rect
             ry="0"
             rx="0"
             y="-2389.7129"
             x="6931.1274"
             height="129.09984"
             width="38.838169"
             id="rect10080"
             style="fill:#ffcc00;fill-opacity:1;stroke:none" />
          <path
             sodipodi:type="star"
             style="fill:#ffffff;fill-opacity:1;stroke:none"
             id="path10082"
             sodipodi:sides="3"
             sodipodi:cx="7445.7144"
             sodipodi:cy="-153.83598"
             sodipodi:r1="65.168541"
             sodipodi:r2="32.58427"
             sodipodi:arg1="0.52359878"
             sodipodi:arg2="1.5707963"
             inkscape:flatsided="true"
             inkscape:rounded="0"
             inkscape:randomized="0"
             d="m 7502.152,-121.25171 -112.8753,0 56.4377,-97.75281 z"
             transform="matrix(-0.34407717,0,0,-0.34407717,9512.4468,-2300.333)"
             inkscape:transform-center-y="5.6057624"
             inkscape:transform-center-x="-0.0006157737" />
          <path
             inkscape:transform-center-x="-0.00019622613"
             inkscape:transform-center-y="1.6493107"
             transform="matrix(-0.10123418,0,0,-0.10123418,7704.3073,-2247.1493)"
             d="m 7502.152,-121.25171 -112.8753,0 56.4377,-97.75281 z"
             inkscape:randomized="0"
             inkscape:rounded="0"
             inkscape:flatsided="true"
             sodipodi:arg2="1.5707963"
             sodipodi:arg1="0.52359878"
             sodipodi:r2="32.58427"
             sodipodi:r1="65.168541"
             sodipodi:cy="-153.83598"
             sodipodi:cx="7445.7144"
             sodipodi:sides="3"
             id="path10084"
             style="fill:#333333;fill-opacity:1;stroke:none"
             sodipodi:type="star" />
        </g>
        <circle
           transform="matrix(0.50909092,0,0,0.50909092,3180.1473,-2282.9462)"
           id="path10094"
           style="fill:#ff0000;fill-opacity:1;stroke:none"
           cx="7433.2144"
           cy="95.09259"
           r="19.642857" />
        <circle
           style="fill:#00ff00;fill-opacity:1;stroke:none"
           id="path10096"
           transform="matrix(0.50909092,0,0,0.50909092,3158.0884,-2297.6811)"
           cx="7433.2144"
           cy="95.09259"
           r="19.642857" />
        <circle
           transform="matrix(0.50909092,0,0,0.50909092,3136.4507,-2317.2502)"
           id="path10098"
           style="fill:#0000ff;fill-opacity:1;stroke:none"
           cx="7433.2144"
           cy="95.09259"
           r="19.642857" />
        <circle
           style="fill:#ffff00;fill-opacity:1;stroke:none"
           id="path10100"
           transform="matrix(0.50909092,0,0,0.50909092,3099.8011,-2361.497)"
           cx="7433.2144"
           cy="95.09259"
           r="19.642857" />
        <circle
           transform="matrix(0.50909092,0,0,0.50909092,3084.3929,-2386.3166)"
           id="path10102"
           style="fill:#ff6600;fill-opacity:1;stroke:none"
           cx="7433.2144"
           cy="95.09259"
           r="19.642857" />
        <circle
           style="fill:#000000;fill-opacity:1;stroke:none"
           id="path10106"
           transform="matrix(0.50909092,0,0,0.50909092,3116.837,-2337.5145)"
           cx="7433.2144"
           cy="95.09259"
           r="19.642857" />
        <circle
           style="fill:#7f2aff;fill-opacity:1;stroke:none"
           id="path10108"
           transform="matrix(0.50909092,0,0,0.50909092,3075.469,-2413.652)"
           cx="7433.2144"
           cy="95.09259"
           r="19.642857" />
        <circle
           transform="matrix(0.50909092,0,0,0.50909092,3070.3596,-2474.9057)"
           id="path10110"
           style="fill:#000080;fill-opacity:1;stroke:none"
           cx="7433.2144"
           cy="95.09259"
           r="19.642857" />
        <circle
           style="fill:#ff00ff;fill-opacity:1;stroke:none"
           id="path10112"
           transform="matrix(0.50909092,0,0,0.50909092,3072.0739,-2442.8343)"
           cx="7433.2144"
           cy="95.09259"
           r="19.642857" />
      </g>
    </g>
    <g
       id="g9"
       transform="translate(225.81083,44.846898)">
      <use
         id="use7"
         transform="translate(149.01332)"
         xlink:href="#rect3928"
         inkscape:tiled-clone-of="#rect3928"
         y="0"
         x="0"
         width="2104.7244"
         height="1488.189"
         style="display:inline" />
      <g
         style="display:inline;fill:#ffffff"
         id="g4633"
         transform="matrix(0.26458333,0,0,0.26458333,-45.888491,-5.333306)">
        <path
           style="fill:#ffffff;fill-opacity:1;stroke:none"
           d="m 1016.625,2021.7812 c -57.9899,0 -105,47.0101 -105,105 0,57.9898 47.0101,105 105,105 57.9899,0 105,-47.0102 105,-105 0,-57.9899 -47.0101,-105 -105,-105 z m 0,19.0313 c 47.4766,0 85.9375,38.4922 85.9375,85.9687 0,47.4766 -38.4609,85.9376 -85.9375,85.9376 -47.47655,0 -85.96875,-38.461 -85.96875,-85.9376 0,-47.4765 38.4922,-85.9687 85.96875,-85.9687 z"
           transform="translate(0.011306,-1550.1239)"
           id="path4635"
           inkscape:connector-curvature="0" />
        <path
           style="color:#000000;font-style:normal;font-variant:normal;font-weight:normal;font-stretch:normal;font-size:medium;line-height:normal;font-family:Sans;-inkscape-font-specification:Sans;text-indent:0;text-align:start;text-decoration:none;text-decoration-line:none;letter-spacing:normal;word-spacing:normal;text-transform:none;writing-mode:lr-tb;direction:ltr;baseline-shift:baseline;text-anchor:start;display:inline;overflow:visible;visibility:visible;fill:#ffffff;fill-opacity:1;stroke:none;stroke-width:16;marker:none;enable-background:accumulate"
           d="m 1061.4688,525.84375 a 8.0008,8.0008 0 0 0 -5.5626,2.28125 l -39.7812,37.90625 -20.6875,-16.4375 a 8.0063756,8.0063756 0 1 0 -9.96875,12.53125 l 26.18745,20.78125 a 8.0008,8.0008 0 0 0 10.5,-0.46875 l 44.7813,-42.71875 a 8.0008,8.0008 0 0 0 -5.4687,-13.875 z"
           id="path4639"
           inkscape:connector-curvature="0" />
        <circle
           style="fill:#ffffff;fill-opacity:1;stroke:none"
           id="path4641"
           transform="matrix(0.79605263,0,0,0.79605263,-247.47457,-242.49777)"
           inkscape:transform-center-y="-74.32463"
           cx="1587.9598"
           cy="935.6355"
           r="9.5964489" />
        <circle
           transform="matrix(0.79605263,0,0,0.79605263,-247.47457,-93.848513)"
           id="path4643"
           style="fill:#ffffff;fill-opacity:1;stroke:none"
           cx="1587.9598"
           cy="935.6355"
           r="9.5964489" />
        <circle
           style="fill:#ffffff;fill-opacity:1;stroke:none"
           id="path4645"
           transform="matrix(0.79605263,0,0,0.79605263,-321.7992,-168.17314)"
           cx="1587.9598"
           cy="935.6355"
           r="9.5964489" />
        <circle
           transform="matrix(0.79605263,0,0,0.79605263,-173.14995,-168.17314)"
           id="path4647"
           style="fill:#ffffff;fill-opacity:1;stroke:none"
           cx="1587.9598"
           cy="935.6355"
           r="9.5964489" />
        <circle
           inkscape:transform-center-y="-64.367027"
           transform="matrix(0.6894018,0.39802631,-0.39802631,0.6894018,331.45253,-764.80366)"
           id="path4649"
           style="fill:#ffffff;fill-opacity:1;stroke:none"
           inkscape:transform-center-x="-37.16232"
           cx="1587.9598"
           cy="935.6355"
           r="9.5964489" />
        <circle
           inkscape:transform-center-x="-64.366978"
           style="fill:#ffffff;fill-opacity:1;stroke:none"
           id="path4651"
           transform="matrix(0.39802632,0.6894018,-0.6894018,0.39802632,1093.971,-927.67028)"
           inkscape:transform-center-y="-37.162313"
           cx="1587.9598"
           cy="935.6355"
           r="9.5964489" />
        <circle
           inkscape:transform-center-y="37.162278"
           transform="matrix(-0.39802631,0.6894018,-0.6894018,-0.39802631,2358.0706,-108.53059)"
           id="path4653"
           style="fill:#ffffff;fill-opacity:1;stroke:none"
           inkscape:transform-center-x="-64.366972"
           cx="1587.9598"
           cy="935.6355"
           r="9.5964489" />
        <circle
           inkscape:transform-center-x="-37.162238"
           style="fill:#ffffff;fill-opacity:1;stroke:none"
           id="path4655"
           transform="matrix(-0.6894018,0.39802632,-0.39802632,-0.6894018,2520.9372,653.98791)"
           inkscape:transform-center-y="64.366966"
           cx="1587.9598"
           cy="935.6355"
           r="9.5964489" />
        <circle
           inkscape:transform-center-y="64.36695"
           transform="matrix(-0.6894018,-0.39802631,0.39802631,-0.6894018,1701.7976,1918.0875)"
           id="path4657"
           style="fill:#ffffff;fill-opacity:1;stroke:none"
           inkscape:transform-center-x="37.162263"
           cx="1587.9598"
           cy="935.6355"
           r="9.5964489" />
        <circle
           inkscape:transform-center-x="64.366941"
           style="fill:#ffffff;fill-opacity:1;stroke:none"
           id="path4659"
           transform="matrix(-0.39802632,-0.6894018,0.6894018,-0.39802632,939.27911,2080.9542)"
           inkscape:transform-center-y="37.162316"
           cx="1587.9598"
           cy="935.6355"
           r="9.5964489" />
        <circle
           inkscape:transform-center-y="-37.162285"
           transform="matrix(0.39802631,-0.6894018,0.6894018,0.39802631,-324.82054,1261.8145)"
           id="path4661"
           style="fill:#ffffff;fill-opacity:1;stroke:none"
           inkscape:transform-center-x="64.366985"
           cx="1587.9598"
           cy="935.6355"
           r="9.5964489" />
        <circle
           inkscape:transform-center-x="37.162291"
           style="fill:#ffffff;fill-opacity:1;stroke:none"
           id="path4663"
           transform="matrix(0.6894018,-0.39802632,0.39802632,0.6894018,-487.68718,499.296)"
           inkscape:transform-center-y="-64.366973"
           cx="1587.9598"
           cy="935.6355"
           r="9.5964489" />
      </g>
    </g>
  </g>
</svg>
